<svg width="619" height="120" viewBox="0 0 619 120" fill="none" xmlns="http://www.w3.org/2000/svg">
<path d="M115.904 72.1731H103.66V94H89.2859V28.3419H115.904C129.302 28.3419 138.263 37.1259 138.263 50.2575C138.263 63.3891 129.302 72.1731 115.904 72.1731ZM112.71 41.1186H103.66V59.3964H112.71C119.631 59.3964 123.091 56.3797 123.091 50.2575C123.091 44.1353 119.631 41.1186 112.71 41.1186ZM179.459 28.3419V80.6909H205.367V94H165.085V28.3419H179.459ZM273.835 94H232.133V28.3419H273.835V41.651H246.507V54.5164H270.729V67.1157H246.507V80.6909H273.835V94ZM317.536 94H303.34V28.3419H317.536L345.219 70.1324V28.3419H359.416V94H345.219L317.536 52.2982V94ZM416.568 94H390.837V28.3419H415.681C434.934 28.3419 448.332 41.8284 448.332 61.3484C448.332 80.5135 435.289 94 416.568 94ZM414.261 41.651H405.211V80.6909H415.148C426.505 80.6909 433.16 73.504 433.16 61.3484C433.16 48.9266 426.15 41.651 414.261 41.651ZM536.77 61.0822C536.77 81.1346 523.55 95.0647 504.474 95.0647C485.486 95.0647 472.443 81.2233 472.443 61.171C472.443 41.1186 485.575 27.1884 504.562 27.1884C523.639 27.1884 536.77 41.0299 536.77 61.0822ZM521.598 61.0822C521.598 48.5717 515.21 41.0299 504.651 41.0299C494.004 41.0299 487.615 48.5717 487.615 61.0822C487.615 73.6815 494.004 81.2233 504.651 81.2233C515.21 81.2233 521.598 73.504 521.598 61.0822ZM578.905 94H564.531V28.3419H589.907C605.878 28.3419 614.928 36.0612 614.928 49.6364C614.928 58.1542 611.29 64.1877 604.014 67.9142L615.549 94H599.844L589.995 71.0197H578.905V94ZM578.905 41.1186V58.4204H589.818C596.118 58.4204 599.755 55.2262 599.755 49.6364C599.755 44.1353 596.295 41.1186 589.907 41.1186H578.905Z" fill="white"/>
<path fill-rule="evenodd" clip-rule="evenodd" d="M29.1701 24.3175C27.606 24.774 27.4617 25.0417 25.6361 26.535C24.9668 27.0824 22.0332 29.4345 19.117 31.7617C16.2009 34.0891 12.3677 37.1603 10.5989 38.5867C7.60168 41.0037 6.44233 41.9336 2.31189 45.2331C1.19235 46.1275 0.610161 46.729 0.35618 47.2536C-0.271731 48.5507 -0.0563413 50.1231 0.898912 51.2162C1.11865 51.4675 2.19698 52.4063 3.2953 53.3022C6.54751 55.9556 18.6164 66.0441 22.7559 69.5697C24.1358 70.745 25.5882 71.863 25.9834 72.0544C27.3011 72.6922 28.4003 72.7666 35.7266 72.714L42.7898 72.663L43.2091 72.1752C43.8695 71.4072 43.7857 70.5403 42.9744 69.7479C42.6145 69.3966 37.4341 65.018 31.4621 60.0177C25.4902 55.0175 20.4259 50.662 20.2082 50.339C19.6885 49.5676 19.6671 48.2962 20.1634 47.6653C20.7475 46.9227 32.5408 37.3769 33.5458 36.8333C34.1085 36.5289 34.7227 36.4976 41.7163 36.4173L49.2784 36.3304L50.3723 35.8252C51.9767 35.0845 62.4902 26.1607 62.6814 25.8923C62.8727 25.6239 62.6095 24.6107 62.0075 24.2438C61.4614 23.9107 61.0522 23.9022 45.8885 23.9051L30.3297 24.0746C30.3297 24.0746 29.6142 24.1878 29.1701 24.3175ZM33.1112 47.1818C32.5099 47.435 32.0855 48.0519 32.0855 48.673C32.0855 49.0129 32.2296 49.4261 32.4245 49.6453C32.6111 49.8548 34.4063 51.4015 36.4142 53.0823C38.422 54.763 41.6984 57.5094 43.695 59.1854C45.6913 60.8614 49.1334 63.7426 51.3439 65.5882C53.6268 67.4946 55.5314 69.2215 55.753 69.5866C56.6678 71.0929 56.1371 71.9762 52.5796 74.8677C43.0123 82.6442 42.9885 82.6623 41.8634 83.0455C41.4773 83.1769 38.4478 83.2767 32.8504 83.3422C24.5807 83.4392 24.4042 83.4486 23.6369 83.8286C22.3272 84.4772 12.3675 93.0053 12.3675 93.0053C12.3675 93.0053 12.1114 94.1546 12.4348 94.6161C13.0949 95.5585 12.4237 95.523 29.5892 95.523C46.9096 95.523 46.5845 95.5403 48.3222 94.5275C49.2271 94.0002 55.4785 88.9877 65.0978 81.0769C66.3408 80.0547 68.7659 78.0707 70.4869 76.668C72.2079 75.2654 73.8272 73.8041 74.0854 73.4206C74.9169 72.1857 74.8955 70.6475 74.0315 69.5492C73.6336 69.0433 73.9246 69.2884 51.9774 50.9552C49.9243 49.2401 47.8904 47.6729 47.4576 47.4727C46.7074 47.1255 46.3627 47.1067 40.0648 47.072C36.4315 47.052 33.3024 47.1014 33.1112 47.1818Z" fill="#A752DE"/>
</svg>
